<svg xmlns="http://www.w3.org/2000/svg" viewBox="0 0 96 96"><defs><style>.cls-1{fill:none;}</style></defs><title>Ativo 247</title><g id="Camada_2" data-name="Camada 2"><g id="Camada_1-2" data-name="Camada 1"><path class="cls-1" d="M96,96H0V0H96ZM4.27,75.64H59.72c1.08-14.25-1.53-17.87-14.93-21.7a45.56,45.56,0,0,0-25.59,0C5.79,57.76,3.2,61.37,4.27,75.64Zm88.65.15c-1-5.31-.84-10.53-3-14.39-3.71-6.48-21-11-28.72-8.34,8.35,5.71,6.68,14.56,6.91,22.73ZM32,44A12,12,0,1,0,20,31.86,12.1,12.1,0,0,0,32,44Zm31.85,0A12,12,0,1,0,52,31.71,12.11,12.11,0,0,0,63.82,44Z"/><path d="M4.27,75.64C3.2,61.37,5.79,57.76,19.2,53.93a45.56,45.56,0,0,1,25.59,0c13.4,3.83,16,7.45,14.93,21.7Z"/><path d="M92.92,75.79H68.07c-.23-8.17,1.44-17-6.91-22.73,7.73-2.64,25,1.86,28.72,8.34C92.08,65.26,91.89,70.48,92.92,75.79Z"/><path d="M32,44a12,12,0,1,1,12-12.1A12.1,12.1,0,0,1,32,44Z"/><path d="M63.82,44A12,12,0,1,1,76,32,12.1,12.1,0,0,1,63.82,44Z"/></g></g></svg>