<svg xmlns="http://www.w3.org/2000/svg" viewBox="0 0 96 96">
    <defs>
        <style>.cls-1{fill:none;}</style>
    </defs>
    <title>Ativo 253</title>
    <g id="Camada_2" data-name="Camada 2">
        <g id="Camada_1-2" data-name="Camada 1">
            <path class="cls-1" d="M0,0H96V96H0ZM30.69,88c1.38-12.4,4.06-16.87,10.79-16.73,10.78.23,11.58,8.39,11.65,16.74,4.8,0,9.11.05,13.42,0,6.49-.09,9.36-3,9.43-9.51.06-4.77,0-9.53,0-14.23,11.58-.72,15.87-3.29,15.85-9.73,0-2.31-.77-5.73-2.36-6.7C85.6,45.46,81,44.26,76,42.3c0-3.48,0-8.11,0-12.74C75.91,23,73.07,20.1,66.59,20c-4.77-.06-9.54,0-14.24,0-1.08-12-3.68-15.89-10.2-16s-9,3.61-10.66,16c-4.87,0-9.83-.08-14.78,0s-8.29,2.72-8.57,7.24c-.31,5.11-.07,10.25-.07,15.3C20.85,44.46,25,47.14,24.71,53.85c-.08,2.33-.86,5.71-2.49,6.71C18.09,63.1,13.3,64.58,8,66.8c0,3.54-.13,8.35,0,13.15s3.16,7.79,7.87,8S25.54,88,30.69,88Z"/>
            <path d="M30.69,88c-5.15,0-10,.15-14.77,0S8.23,84.7,8.05,80,8,70.34,8,66.8c5.29-2.22,10.08-3.7,14.21-6.24,1.63-1,2.41-4.38,2.49-6.71.24-6.71-3.86-9.39-16.64-11.28,0-5-.24-10.19.07-15.3.28-4.52,3.58-7.14,8.57-7.24s9.91,0,14.78,0C33.16,7.63,35.69,3.92,42.15,4s9.12,4,10.2,16c4.7,0,9.47-.05,14.24,0,6.48.08,9.32,3,9.39,9.54.06,4.63,0,9.26,0,12.74,5,2,9.6,3.16,13.48,5.51,1.59,1,2.36,4.39,2.36,6.7,0,6.44-4.27,9-15.85,9.73,0,4.7.05,9.46,0,14.23C75.91,85,73,87.89,66.55,88c-4.31.06-8.62,0-13.42,0-.07-8.35-.87-16.51-11.65-16.74C34.75,71.11,32.07,75.58,30.69,88Z"/>
        </g>
    </g>
</svg>