<svg xmlns="http://www.w3.org/2000/svg" viewBox="0 0 96 96"><defs><style>.cls-1{fill:none;}</style></defs><title>Ativo 264</title><g id="Camada_2" data-name="Camada 2"><g id="Camada_1-2" data-name="Camada 1"><path class="cls-1" d="M96,96H0V0H96ZM83.67,75.88V32c-13.85.24-25.5,5.17-35.52,13.88C33.29,35.24,22.84,31.33,12.26,32.47V75.86a55.2,55.2,0,0,1,35.79,14.2A54.54,54.54,0,0,1,83.67,75.88ZM48.21,8A12.07,12.07,0,0,0,36,19.9a12,12,0,0,0,24,.43A12.11,12.11,0,0,0,48.21,8Z"/><path d="M83.67,75.88A54.54,54.54,0,0,0,48.05,90.06a55.2,55.2,0,0,0-35.79-14.2V32.47c10.58-1.14,21,2.77,35.89,13.41,10-8.71,21.67-13.64,35.52-13.88Z"/><path d="M48.21,8A12.11,12.11,0,0,1,60,20.33a12,12,0,0,1-24-.43A12.07,12.07,0,0,1,48.21,8Z"/></g></g></svg>