<svg xmlns="http://www.w3.org/2000/svg" viewBox="0 0 96 96"><defs><style>.cls-1{fill:none;}</style></defs><title>Ativo 245</title><g id="Camada_2" data-name="Camada 2"><g id="Camada_1-2" data-name="Camada 1"><path class="cls-1" d="M0,0H96V96H0ZM8.55,31.67H83.44c2.19-6-.67-8.64-5.52-11C68.18,16,58.79,10.6,49.1,5.81a7.94,7.94,0,0,0-6.2,0C33.21,10.6,23.82,16,14.08,20.69,9.22,23,6.38,25.68,8.55,31.67Zm-.33,56H83.76V76.27H8.22Zm8.12-47.41V67.61H27.75V40.24ZM51.65,67.77V40.41H40.27V67.77Zm24,0V40.41H64.27V67.77Z"/><path d="M8.55,31.67c-2.17-6,.67-8.64,5.53-11C23.82,16,33.21,10.6,42.9,5.81a7.94,7.94,0,0,1,6.2,0C58.79,10.6,68.18,16,77.92,20.7c4.85,2.33,7.71,5,5.52,11Z"/><path d="M8.22,87.65V76.27H83.76V87.65Z"/><path d="M16.34,40.24H27.75V67.61H16.34Z"/><path d="M51.65,67.77H40.27V40.41H51.65Z"/><path d="M75.65,67.77H64.27V40.41H75.65Z"/></g></g></svg>