<svg xmlns="http://www.w3.org/2000/svg" viewBox="0 0 97 96"><defs><style>.cls-1{fill:none;}</style></defs><title>Ativo 259</title><g id="Camada_2" data-name="Camada 2"><g id="Camada_1-2" data-name="Camada 1"><path class="cls-1" d="M0,96V0H97V96ZM80,28.11c0-3,.08-5.31,0-7.61-.23-5.29-3.18-8.42-8.45-8.45q-27.46-.15-54.93,0c-5.33,0-8.51,3.09-8.54,8.33q-.15,27.72,0,55.43c0,5,3.22,8.11,8.22,8.14q27.71.16,55.43,0c5,0,8-3.17,8.25-8.14.13-2.44,0-4.9,0-7.54l7.67-.52V59.9H80.27V52.2l7.34-.44V44.15l-7.3-.33v-8h7.44V28.11Z"/><path d="M80,28.11h7.76v7.67H80.31v8l7.3.33v7.61l-7.34.44v7.7h7.38v7.84L80,68.26c0,2.64.11,5.1,0,7.54-.27,5-3.26,8.11-8.25,8.14q-27.72.16-55.43,0c-5,0-8.19-3.18-8.22-8.14q-.18-27.7,0-55.43c0-5.24,3.21-8.3,8.54-8.33q27.46-.13,54.93,0c5.27,0,8.22,3.16,8.45,8.45C80.07,22.8,80,25.1,80,28.11ZM16.35,20.22V75.6H71.74V20.22Z"/><path class="cls-1" d="M16.35,20.22H71.74V75.6H16.35Zm7.88,27.43H43.6V28.27H24.23ZM48.4,44.19V67.72H63.68V44.19ZM24.24,67.72H43.67V52.37H24.24ZM63.77,28.35H48.4V39.74H63.77Z"/><path d="M24.23,47.65V28.27H43.6V47.65Z"/><path d="M48.4,44.19H63.68V67.72H48.4Z"/><path d="M24.24,67.72V52.37H43.67V67.72Z"/><path d="M63.77,28.35V39.74H48.4V28.35Z"/></g></g></svg>