<svg xmlns="http://www.w3.org/2000/svg" viewBox="0 0 95.81 95.91"><defs><style>.cls-1{fill:none;}</style></defs><title>Ativo 256</title><g id="Camada_2" data-name="Camada 2"><g id="Camada_1-2" data-name="Camada 1"><path class="cls-1" d="M95.81,95.91H0V0H95.81ZM72.14,11.45c-.12-2.36-.25-4.77-.38-7.2H63.9v7.39H32.19l-.48-7.35H24.13l-.35,7.18C13.13,12.81,12,14.12,12,24.75q0,24.48,0,49c0,7.47,2.73,10.17,10.27,10.18q25.72,0,51.46,0c7.51,0,10.23-2.72,10.25-10.21q0-24.24,0-48.47C84,14.07,83,12.87,72.14,11.45Z"/><path d="M72.14,11.45C83,12.87,84,14.07,84,25.21q0,24.24,0,48.47c0,7.49-2.74,10.2-10.25,10.21q-25.72,0-51.46,0C14.71,83.88,12,81.18,12,73.71q0-24.48,0-49c0-10.63,1.15-11.94,11.8-13.28l.35-7.18h7.58l.48,7.35H63.9V4.25h7.86C71.89,6.68,72,9.09,72.14,11.45ZM20.19,75.56H75.58V32.16H20.19Z"/><path class="cls-1" d="M20.19,75.56V32.16H75.58v43.4Zm8-27.92H67.66v-7.4H28.18Zm27.56,8.53H28.29v7.39H55.74Z"/><path d="M28.18,47.64v-7.4H67.66v7.4Z"/><path d="M55.74,56.17v7.39H28.29V56.17Z"/></g></g></svg>