<svg xmlns="http://www.w3.org/2000/svg" viewBox="0 0 97 96"><defs><style>.cls-1{fill:none;}</style></defs><title>Ativo 249</title><g id="Camada_2" data-name="Camada 2"><g id="Camada_1-2" data-name="Camada 1"><path class="cls-1" d="M0,96V0H97V96ZM45,57.81c0-7.62.14-14.75,0-21.87-.13-4.69-3.24-7.68-7.94-7.89-4-.18-8-.15-12,0-4.39.17-7.56,2.59-7.81,6.89-.45,7.57-.13,15.18-.13,22.76l6.18.72V87.73h15.8V58.18ZM85,64c-3.59-10.71-6.7-21-10.67-31-.9-2.25-4.78-4.57-7.29-4.57s-6.41,2.3-7.3,4.54c-4,10-7.1,20.33-10.74,31.2H61.22V87.74H73.08V64ZM39,15.82A8,8,0,1,0,31.29,24,8.09,8.09,0,0,0,39,15.82ZM67.2,8a8,8,0,1,0,7.77,8A8,8,0,0,0,67.2,8Z"/><path d="M45,57.81l-5.92.37V87.73H23.26V58.41l-6.18-.72c0-7.58-.32-15.19.13-22.76.25-4.3,3.42-6.72,7.81-6.89,4-.14,8-.17,12,0,4.7.21,7.81,3.2,7.94,7.89C45.12,43.06,45,50.19,45,57.81Z"/><path d="M85,64H73.08V87.74H61.22V64.11H49c3.64-10.87,6.76-21.2,10.74-31.2.89-2.24,4.79-4.55,7.3-4.54s6.39,2.32,7.29,4.57C78.27,42.92,81.38,53.25,85,64Z"/><path d="M39,15.82a8,8,0,1,1-15.94.1A8,8,0,0,1,39,15.82Z"/><path d="M67.2,8a8.05,8.05,0,0,1,7.77,8A8,8,0,1,1,67.2,8Z"/></g></g></svg>