<svg xmlns="http://www.w3.org/2000/svg" viewBox="0 0 97 96"><defs><style>.cls-1{fill:none;}</style></defs><title>Ativo 263</title><g id="Camada_2" data-name="Camada 2"><g id="Camada_1-2" data-name="Camada 1"><path class="cls-1" d="M0,96V0H97V96ZM69,16H64.39c-17.14,0-34.29-.07-51.43.07-4.9,0-7.84,3.32-7.92,8.43-.12,8,0,16,0,24V68h7.47C15,76.3,18.76,79.88,24.8,80s9.92-3.39,12.8-11.85H60.41c2.81,8.43,6.64,12,12.78,11.85s9.75-3.64,12.3-11.8L93,67.72c0-6.32,1.45-12.78-.38-18.13-2-6-6.69-11.32-11-16.26-1.35-1.56-5.19-1-7.9-1.31-1.44-.17-2.89-.15-4.68-.24Z"/><path d="M69,16V31.78c1.79.09,3.24.07,4.68.24,2.71.32,6.55-.25,7.9,1.31,4.29,4.94,8.93,10.25,11,16.26,1.83,5.35.38,11.81.38,18.13l-7.49.46c-2.55,8.16-6.26,11.69-12.3,11.8s-10-3.42-12.78-11.85H37.6c-2.88,8.46-6.67,12-12.8,11.85S15,76.3,12.47,68H5V48.47c0-8-.08-16,0-24,.08-5.11,3-8.39,7.92-8.43C30.1,15.93,47.25,16,64.39,16Zm.16,31.63H86c-6-9.91-8-10.94-16.8-8.94ZM24.65,61.93c-3.22.61-5.63,2.4-5.56,6.13s2.3,5.88,6,5.83,5.86-2.29,5.84-6S28.52,62.38,24.65,61.93ZM79,68c-.48-3.57-2.35-5.91-6-5.88S67.09,64.35,67.1,68,69.35,73.89,73,73.9,78.58,71.56,79,68Z"/><path class="cls-1" d="M69.2,47.63V38.69c8.84-2,10.81-1,16.8,8.94Z"/><path class="cls-1" d="M24.65,61.93c3.87.45,6.23,2.3,6.25,6s-2.19,5.92-5.84,6-5.9-2.17-6-5.83S21.43,62.54,24.65,61.93Z"/><path class="cls-1" d="M79,68c-.45,3.59-2.32,5.93-6,5.93S67.11,71.68,67.1,68s2.21-5.88,5.88-5.92S78.55,64.4,79,68Z"/></g></g></svg>