<svg xmlns="http://www.w3.org/2000/svg" width="87.503" height="87.503" viewBox="0 0 87.503 87.503">
  <g id="Grupo_6" data-name="Grupo 6" transform="translate(87.503 87.503) rotate(180)">
    <path id="Caminho_862" data-name="Caminho 862" d="M43.751,0A43.751,43.751,0,1,1,0,43.751,43.751,43.751,0,0,1,43.751,0Z" fill="#1c8cdc"/>
    <g id="next" transform="translate(30.234 21.522)">
      <path id="Caminho_1" data-name="Caminho 1" d="M25.7,23.718,2.389.412A1.4,1.4,0,0,0,.412,2.389L22.724,24.7.412,47.014a1.394,1.394,0,0,0,0,1.978,1.407,1.407,0,0,0,.984.414,1.364,1.364,0,0,0,.984-.414L25.685,25.685A1.39,1.39,0,0,0,25.7,23.718Z" fill="#fff"/>
    </g>
  </g>
</svg>
