<svg id="facebook" xmlns="http://www.w3.org/2000/svg" width="46.748" height="46.748" viewBox="0 0 46.748 46.748">
  <path id="Caminho_844" data-name="Caminho 844" d="M291.441,508.668q-.292.048-.586.088Q291.149,508.716,291.441,508.668Zm0,0" transform="translate(-264.299 -462.224)"/>
  <path id="Caminho_845" data-name="Caminho 845" d="M299.619,507.793l-.279.049Zm0,0" transform="translate(-272.008 -461.429)"/>
  <path id="Caminho_846" data-name="Caminho 846" d="M278.3,510.34q-.342.038-.687.068Q277.955,510.379,278.3,510.34Zm0,0" transform="translate(-252.262 -463.743)"/>
  <path id="Caminho_847" data-name="Caminho 847" d="M286.775,509.738l-.33.041Zm0,0" transform="translate(-260.292 -463.196)"/>
  <path id="Caminho_848" data-name="Caminho 848" d="M306.911,506.41l-.247.052Zm0,0" transform="translate(-278.664 -460.172)"/>
  <path id="Caminho_849" data-name="Caminho 849" d="M324.683,502.113l-.2.055Zm0,0" transform="translate(-294.857 -456.267)"/>
  <path id="Caminho_850" data-name="Caminho 850" d="M319.276,503.543l-.217.056Zm0,0" transform="translate(-289.927 -457.567)"/>
  <path id="Caminho_851" data-name="Caminho 851" d="M312.3,505.254l-.23.052Zm0,0" transform="translate(-283.573 -459.122)"/>
  <path id="Caminho_852" data-name="Caminho 852" d="M273.85,511.09q-.185.016-.369.028Q273.665,511.106,273.85,511.09Zm0,0" transform="translate(-248.51 -464.425)"/>
  <path id="Caminho_853" data-name="Caminho 853" d="M46.748,23.374A23.374,23.374,0,1,0,23.374,46.748c.137,0,.274,0,.411-.005v-18.2H18.763V22.695h5.022V18.388c0-4.995,3.049-7.713,7.5-7.713a41.338,41.338,0,0,1,4.5.23v5.22H32.719c-2.424,0-2.893,1.152-2.893,2.842v3.727h5.8l-.755,5.852h-5.04v17.3A23.387,23.387,0,0,0,46.748,23.374Zm0,0"/>
  <path id="Caminho_854" data-name="Caminho 854" d="M265.623,511.43q-.365.024-.733.036Q265.258,511.454,265.623,511.43Zm0,0" transform="translate(-240.705 -464.734)"/>
  <path id="Caminho_855" data-name="Caminho 855" d="M260.892,511.836q-.194.006-.388.01Q260.7,511.842,260.892,511.836Zm0,0" transform="translate(-236.719 -465.103)"/>
</svg>
