<svg id="instagram" xmlns="http://www.w3.org/2000/svg" width="46.748" height="46.748" viewBox="0 0 46.748 46.748">
  <path id="Caminho_856" data-name="Caminho 856" d="M215.948,211.474A4.474,4.474,0,1,1,211.474,207,4.474,4.474,0,0,1,215.948,211.474Zm0,0" transform="translate(-188.1 -188.1)"/>
  <path id="Caminho_857" data-name="Caminho 857" d="M156.951,138.576a4.445,4.445,0,0,0-2.547-2.547,7.426,7.426,0,0,0-2.492-.462c-1.416-.065-1.84-.078-5.424-.078s-4.008.014-5.424.078a7.431,7.431,0,0,0-2.492.462,4.447,4.447,0,0,0-2.548,2.547,7.429,7.429,0,0,0-.462,2.492c-.065,1.415-.078,1.84-.078,5.424s.014,4.008.078,5.424a7.426,7.426,0,0,0,.462,2.492,4.445,4.445,0,0,0,2.547,2.547,7.418,7.418,0,0,0,2.492.462c1.415.065,1.839.078,5.423.078s4.009-.014,5.424-.078a7.418,7.418,0,0,0,2.492-.462,4.445,4.445,0,0,0,2.547-2.547,7.433,7.433,0,0,0,.462-2.492c.065-1.416.078-1.84.078-5.424s-.014-4.009-.078-5.424A7.417,7.417,0,0,0,156.951,138.576Zm-10.463,14.808a6.892,6.892,0,1,1,6.892-6.892A6.892,6.892,0,0,1,146.488,153.384Zm7.165-12.446a1.611,1.611,0,1,1,1.611-1.611A1.611,1.611,0,0,1,153.653,140.938Zm0,0" transform="translate(-123.114 -123.118)"/>
  <path id="Caminho_858" data-name="Caminho 858" d="M23.374,0A23.374,23.374,0,1,0,46.748,23.374,23.377,23.377,0,0,0,23.374,0ZM36.715,28.908a9.847,9.847,0,0,1-.624,3.258,6.863,6.863,0,0,1-3.925,3.925,9.854,9.854,0,0,1-3.258.624c-1.431.065-1.889.081-5.534.081s-4.1-.016-5.534-.081a9.854,9.854,0,0,1-3.258-.624,6.863,6.863,0,0,1-3.925-3.925,9.845,9.845,0,0,1-.624-3.258c-.066-1.432-.081-1.889-.081-5.534s.015-4.1.081-5.534a9.848,9.848,0,0,1,.623-3.258,6.868,6.868,0,0,1,3.926-3.925,9.856,9.856,0,0,1,3.258-.624c1.431-.065,1.889-.081,5.534-.081s4.1.016,5.534.081a9.859,9.859,0,0,1,3.258.623,6.865,6.865,0,0,1,3.925,3.926,9.846,9.846,0,0,1,.624,3.258c.065,1.431.081,1.889.081,5.534S36.781,27.476,36.715,28.908Zm0,0"/>
</svg>
