<svg id="whatsapp" xmlns="http://www.w3.org/2000/svg" width="46.748" height="46.748" viewBox="0 0 46.748 46.748">
  <path id="Caminho_859" data-name="Caminho 859" d="M23.374,0A23.374,23.374,0,1,0,46.748,23.374,23.377,23.377,0,0,0,23.374,0Zm.5,36.983h-.006a13.984,13.984,0,0,1-6.686-1.7L9.762,37.226l1.985-7.247a13.991,13.991,0,1,1,12.123,7Zm0,0"/>
  <path id="Caminho_860" data-name="Caminho 860" d="M145.7,124.469a11.629,11.629,0,0,0-9.855,17.809l.276.44-1.175,4.29,4.4-1.154.425.252a11.609,11.609,0,0,0,5.918,1.62h0a11.628,11.628,0,0,0,.005-23.256Zm6.839,16.621a3.6,3.6,0,0,1-2.359,1.662,4.8,4.8,0,0,1-2.2-.138,20.187,20.187,0,0,1-1.993-.736,15.581,15.581,0,0,1-5.971-5.276,6.8,6.8,0,0,1-1.427-3.615,3.918,3.918,0,0,1,1.223-2.915,1.285,1.285,0,0,1,.932-.437c.233,0,.466,0,.67.012s.5-.082.786.6c.291.7.99,2.42,1.078,2.594a.644.644,0,0,1,.029.612,9.961,9.961,0,0,1-.874,1.2c-.155.192-.357.363-.153.713a10.536,10.536,0,0,0,1.945,2.421,9.555,9.555,0,0,0,2.811,1.734c.349.175.553.146.757-.087s.874-1.02,1.107-1.37.466-.291.786-.175,2.039.962,2.389,1.137.582.262.67.408a2.915,2.915,0,0,1-.2,1.662Zm0,0" transform="translate(-121.83 -113.104)"/>
</svg>
